<svg width="34" height="35" viewBox="0 0 34 35" fill="none" xmlns="http://www.w3.org/2000/svg">
<path d="M9.64108 2.59369L9.38331 2.1617C8.58975 0.831829 6.89658 0.351856 5.52318 1.06745L5.11831 1.2784C3.81224 1.95891 2.64103 2.87163 1.66205 3.97187L1.35169 4.32067C1.14915 4.5483 0.991607 4.81225 0.887394 5.09856C0.321218 6.65403 0.419804 8.37392 1.16001 9.85451L2.56656 12.668C2.94983 13.4346 3.40612 14.1625 3.92909 14.8416L9.80455 22.4708L12.5354 25.514C13.2731 26.3362 14.0777 27.0958 14.9408 27.7851L17.3534 29.7116C18.2684 30.4422 19.2488 31.0868 20.2822 31.6372L24.5805 33.9263C25.6334 34.487 26.8464 34.6704 28.018 34.4462C28.2289 34.4058 28.4324 34.3332 28.6213 34.2308L28.8658 34.0981C30.5737 33.172 31.9642 31.7546 32.8577 30.0294L33.0949 29.5714C33.6149 28.5673 33.3194 27.3338 32.4008 26.6744L31.0602 25.7119C29.6786 24.7201 28.1385 23.9703 26.5056 23.4948C25.4009 23.173 24.2095 23.5113 23.4387 24.3654L23.1972 24.6331C22.5596 25.3395 21.4805 25.4228 20.7421 24.8226L17.8489 22.4708L13.6228 18.0555C12.3971 16.775 11.3006 15.3769 10.3492 13.8814L9.77944 12.9859C9.30507 12.2403 9.51606 11.2521 10.2536 10.7652C11.4726 9.96048 12.0021 8.4393 11.5462 7.05154L11.2188 6.05484C10.8219 4.84657 10.2928 3.68582 9.64108 2.59369Z" fill="#C24848"/>
<path d="M25.9675 14.1911C24.3772 10.6785 23.1826 8.96304 18.4772 7.57104C18.1331 7.46925 17.9274 7.11144 18.0239 6.76583C18.1143 6.44172 18.4382 6.24108 18.7687 6.30436L20.0901 6.55736L20.6714 6.73387C23.2167 7.5067 25.3337 9.28979 26.5278 11.6668L27.3606 13.5807C27.5584 14.0351 27.275 14.5541 26.7858 14.6334C26.4451 14.6887 26.1098 14.5056 25.9675 14.1911Z" fill="#C24848"/>
<path d="M15.9144 1.5243L16.116 1.38793C16.2552 1.29379 16.4237 1.24311 16.5916 1.2448C27.843 1.35858 31.0687 8.79389 32.569 12.1288C32.9509 13.3815 33.8984 15.691 32.5914 15.7754C32.2261 15.7989 31.7563 15.1925 31.4243 14.0161C29.2564 6.33401 22.2841 2.33015 16.3073 2.64881C16.1012 2.6598 15.9014 2.57285 15.7744 2.41007C15.5559 2.12996 15.6202 1.72337 15.9144 1.5243Z" fill="#C24848"/>
</svg>
