<svg width="40" height="40" viewBox="0 0 40 40" fill="none" xmlns="http://www.w3.org/2000/svg">
<circle cx="20" cy="20" r="18" stroke="#C24848" stroke-width="4"/>
<mask id="path-2-inside-1_155_110" fill="white">
<path d="M34 20C34 21.7072 33.6379 23.3977 32.9343 24.9749C32.2307 26.5521 31.1995 27.9852 29.8995 29.1924C28.5995 30.3996 27.0561 31.3571 25.3576 32.0104C23.659 32.6637 21.8385 33 20 33C18.1615 33 16.341 32.6637 14.6424 32.0104C12.9439 31.3571 11.4005 30.3995 10.1005 29.1924C8.80047 27.9852 7.76924 26.5521 7.06568 24.9749C6.36211 23.3976 6 21.7072 6 20L9.14765 20C9.14765 21.3233 9.42835 22.6337 9.97373 23.8564C10.5191 25.079 11.3185 26.1899 12.3262 27.1256C13.334 28.0614 14.5303 28.8037 15.847 29.3101C17.1636 29.8165 18.5748 30.0772 20 30.0772C21.4251 30.0772 22.8363 29.8165 24.153 29.3101C25.4697 28.8037 26.666 28.0614 27.6738 27.1256C28.6815 26.1899 29.4809 25.079 30.0263 23.8564C30.5716 22.6338 30.8523 21.3234 30.8523 20H34Z"/>
</mask>
<path d="M34 20C34 21.7072 33.6379 23.3977 32.9343 24.9749C32.2307 26.5521 31.1995 27.9852 29.8995 29.1924C28.5995 30.3996 27.0561 31.3571 25.3576 32.0104C23.659 32.6637 21.8385 33 20 33C18.1615 33 16.341 32.6637 14.6424 32.0104C12.9439 31.3571 11.4005 30.3995 10.1005 29.1924C8.80047 27.9852 7.76924 26.5521 7.06568 24.9749C6.36211 23.3976 6 21.7072 6 20L9.14765 20C9.14765 21.3233 9.42835 22.6337 9.97373 23.8564C10.5191 25.079 11.3185 26.1899 12.3262 27.1256C13.334 28.0614 14.5303 28.8037 15.847 29.3101C17.1636 29.8165 18.5748 30.0772 20 30.0772C21.4251 30.0772 22.8363 29.8165 24.153 29.3101C25.4697 28.8037 26.666 28.0614 27.6738 27.1256C28.6815 26.1899 29.4809 25.079 30.0263 23.8564C30.5716 22.6338 30.8523 21.3234 30.8523 20H34Z" stroke="#C24848" stroke-width="4" stroke-linejoin="round" mask="url(#path-2-inside-1_155_110)"/>
<circle cx="14.5" cy="15.5" r="3.5" fill="#C24848"/>
<circle cx="25.5" cy="15.5" r="3.5" fill="#C24848"/>
</svg>
