<?xml version="1.0" encoding="UTF-8"?><svg id="Layer_1" xmlns="http://www.w3.org/2000/svg" width="863.96" height="979.64" viewBox="0 0 863.96 979.64"><defs><style>.cls-1{fill:#fee394;stroke-width:0px;}</style></defs><path class="cls-1" d="m201.59,155.94c-1.13-2.71-.8-6.33-.19-9.96-4.35-1.66-10.91-8.32-12.86-13.34-2.17-5.59-4.04-14.28-3.04-20.58,1.95-12.3,13.72-16.54,21.04-21.11,8.73-5.45,18.29-12.3,26.04-19.78,3.73-3.6,6-9.09,8.87-13.74,3.05-4.95,6.24-9.14,8.92-14.47,6.9-13.72,14.4-26.06,5.64-40.06l-2.03-2.89c.76.97,1.43,1.94,2.03,2.89l7.25,10.35-3.71,16.02-9.18,18.62-6.6,13.32-11.14,13.53-25.42,22.72-18.67,14.87,5.5,20.32,8.01,7.77c.07-.38.31-1.01.66-1.76,1.19-2.57,3.6-6.64,4.5-7.8.96-1.23,6.59-3.55,6.86-.6.51,5.6,7.51,10.05,12.07,12.87l11.86-4.24,11.55-8.63,8.15-14.81,10.36-13.87,10.98-17.72,14.88-16.05,19.56-13.43,19.6-4.13,26.71,1.13c-18.06,0-35.44-1.85-51.77,9.83-13.28,9.5-24.6,20.64-33.77,36.25-5.07,8.62-11.5,15.83-16.55,24.5-3.02,5.19-5.07,9.49-9.33,13.14-7.07,6.07-12.14,8.99-20,9.43.03.02.06.04.09.06,4.42,2.95,9.46,3.59,14.39,3.59,8.52,0,15.42-5.98,24.13-5.98,1.73,0,3.77-.27,5.78-.33-1.23-.33-2.44-.8-3.72-.86-9.66-.46-10.08-9.95-5.78-19.65,3.88-8.75,22.54-4.25,28.36-3.05,4.27-3.71,4.63-6.4,9.52-7.09,5.7-.8,11.29,1.17,16.98,1.11,6.85-.06,14.67-1.37,20.98-5.15,4.17-2.5,7.31-5.39,10.92-8.91,3.07-2.99,6.41-5.61,9.38-8.77,3.93-4.19,7.27-4.21,12.14-5.64,6.5-1.9,12.53-4.11,19.25-4.11,12.06,0,23.84,2.51,35.9,2.51,13.21,0,26.81-.98,38.17-10.93,4.28-3.74,8.81-.71,13.87-1.75,1.24-.25,3.47-1.53,7.79-4.47,11.14-7.58-13.38,17.75-15.93,19.65-3.08,2.3-5.29,4.05-8.45,6.03.05.01.04.02-.05.03-.76.48-2.41.85-4.21,1.06.76.09,1.18.12-1.34.13-1.27.09-2.52.1-3.51,0-4.41,0-8.72.44-13.03.74-4.93,3.81,49.46,3.75,44.08,6.17-16.06,7.22-32.57,11.02-49.5,11.02-13.87,0-28.01,1.29-41.72-1.73-7.18-1.58-16.31-1.35-23.36,1.19-3.56,1.28-26.47,9.06-25.27,14.34.19.84,5.85-2.74,6.5-3.05,2.95-1.46,6.48-3.13,9.64-3.52,4.92-.6,12.1-1.15,16.86,1.13,4.06,1.95,8.65,2.23,11.34,7.43,1.04,2.01,2.78,6.29,1.65,8.76-.74,1.63-4.4-2.58-5-3.05-3.55-2.78-6.88-3.58-10.98-3.58-.52,0-6.54.53-3.09,2.12,3.46,1.6,13.99,5.04,10.31,5.04-1.48,0-10.34,2.88-5.36,4.71,4.84,1.78,12.79,1.05,17.84,1.26,4.62.19,13.79-.23,17.84,3.12,5.17,4.28,3.59,6.44-1.13,6.44-4.11,0-29.78-.44-20.58,7.77,4.62,4.12,12.62,5.63,18,7.77,9.61,3.82,19.29,9.56,28.67,14.67,10.02,5.46,16.75,8.5,30.36,11.88h38.43l38.39-11.88,46.22-12.66c2.75-.76,5.64-.91,8.45-.46l47.25,7.58,12.14,9.23c4.06,3.09,6.79,7.61,7.63,12.64l6.5,39.11-7.19,47.41c-.4,2.62-1.32,5.15-2.7,7.41l-26.49,43.45-33.78,34.7c-1.32,1.36-2.83,2.52-4.47,3.45l-45.03,25.5-43.64,16.88c-5.75,2.23-11.87,3.37-18.04,3.37h-57.65c-7.27,0-14.45-1.58-21.04-4.64l-64.81-30.06-67.94-22.44c-4.57-1.51-9.53-1.32-13.97.53l-10.59,4.42c-7.28,3.04-12.1,10.07-12.29,17.96l-.71,28.57,36.71,40.42c2.75,3.03,6.37,5.14,10.36,6.05l50.8,11.58,48.12,18.03c2.24.84,4.62,1.27,7.02,1.27h53.87l51.45-6.45h4.96c1.49,0,2.97.17,4.43.5l74,16.8c4.25.96,8.07,3.29,10.88,6.63l19.12,22.73,24.2,41.8v70.16l-23.22,48.79c-.65,1.38-1.46,2.67-2.41,3.87l-33.5,42.06c-1.72,2.16-3.88,3.95-6.33,5.24l-37.02,19.49-43.47-11.58c-2.11-.56-4.12-1.47-5.94-2.68l-24.38-16.25-19.54-14.48c-8.61-6.38-19.05-9.83-29.77-9.83h-34.06l-87.68,16.22h-85.68l129.38-16.22h-58.98l-63.31-38.18,58.4,26.02h31.9l10.01-14.97-59.38-27.13-62.76-37.54,87.87,37.54h46.39l-43.88-12.52-34.08-19.58-42.27-39.69,61.25,39.69,106.22,32.1,48.81-9.22c11.32-2.14,23.03-.3,33.15,5.2l25.33,13.77,15.85,12.89c3.57,2.9,8.02,4.48,12.62,4.48h18.26l16.2-8.86c2.95-1.61,5.45-3.94,7.26-6.77l27.02-42.25-6.07-37.92c-1.17-7.29-6.25-13.35-13.23-15.75l-21.27-7.33c-2.1-.72-4.3-1.09-6.51-1.09h-135.9c-1.21,0-2.41-.11-3.6-.33l-69.04-12.65-52.36-7.55c-4.87-.7-9.31-3.18-12.47-6.95l-49.45-59.02c-1.37-1.64-2.47-3.48-3.26-5.46l-22.06-55.54c-1.06-2.67-1.53-5.54-1.39-8.4l3.3-64.61c.16-3.12,1.05-6.15,2.59-8.87l18.56-32.64c3.56-6.25,10.19-10.11,17.39-10.11h61.29c2.11,0,4.21.33,6.21.99l71.66,23.42,52.08,31.96c10.84,6.65,23.8,8.93,36.26,6.36l73.42-15.15c2.23-.46,4.37-1.3,6.32-2.48l44.67-27.06c1.84-1.12,3.49-2.52,4.88-4.16l29.96-35.29v-18.29c0-6.45-5.23-11.69-11.69-11.69-1.27,0-2.53.21-3.74.61l-57.29,19.33h-68.11l-30.36-9.52-56.21-23.45c-5.35-2.64-10.53-5.54-16.29-5.71-3.83-.11-7.28-3.05-11.03-3.05-2.37,0,4.71,18.21,5.67,20.25,2.28,4.83.07,2.13-2.79,1.92-3.7-.26-7.79-4.66-11.09-6.57-5.6-3.25-10.88-6.87-16.71-9.49-4.21-1.9-11.92-9.17-12.12-.66-.14,6.06-5.65-4.99-6.7-5.98-2.8-2.64-4.23-6.76-7.27-8.96-2.05-1.49-9.52-4-10.21,0-.61,3.51-6.09-.65-7.58-1.79-1.99-1.52-15.85-2.78-16.35-.53-.08.34,7.02,13.79.98,8.9-2.76-2.24-7.53-7.52-11.14-4.25-3.08,2.79-2.94,10.69-7.58,3.72-3.99-5.99-9.14-2.81-13.51-8.43-1.37-1.77-4.26-11.35-.88-11.35,4.88,0,11.41,1.33,7.84-6.24-1.18-2.5-7.63-18.04-3.25-11.15,2.03,3.2,5.89,12.46,9.02,12.61,4.31.21,5.68-1.12,8.15-5.71,1.34-2.5,3.98-8.65,6.03-9.83,6.81-3.9,14.92-2.39,22.28-2.39,1.77,0,12.57,3.02,12.84,2.32.69-1.79-6.26-6.49-7.01-6.84-4.82-2.22-9.11-2.66-14.18-2.66-2.98,0-5.52,1.98-8.35,2.92-3.23,1.08-6.51.62-9.75,1.86-6.23,2.38-15.09.58-21.55-.27-.87-.11-11.42-1.25-10.52.27,1.4,2.36,3.22,4.5,4.74,6.77,2.75,4.1,8.27,12.63.41,7.83-2.85-1.74-5.52-4.29-7.94-6.84-3.38-3.56-7.29-6.85-11.09-9.56-1.76-1.26-5.42-.68-6.75-2.06-1.98-2.04-3.85-2.93-5.26-6.31Z"/></svg>