<svg width="493" height="763" viewBox="0 0 493 763" fill="none" xmlns="http://www.w3.org/2000/svg">
<path d="M22.4971 156.323C21.3635 153.612 21.6937 149.996 22.3106 146.358C17.9569 144.697 11.3999 138.039 9.4512 133.021C7.27843 127.427 5.40811 118.741 6.40886 112.442C8.36324 100.141 20.13 95.9014 27.4474 91.3311C36.18 85.8767 45.7381 79.0308 53.4877 71.5481C57.2179 67.9463 59.4896 62.4546 62.3569 57.8062C65.4094 52.8575 68.6 48.6615 71.2776 43.334C78.1749 29.6108 85.6762 17.2728 76.9145 3.27376L74.8872 0.382324C75.6423 1.35452 76.3163 2.31801 76.9145 3.27376L84.1689 13.6203L80.4562 29.6441L71.2776 48.2664L64.6773 61.5902L53.5393 75.1172L28.1177 97.8369L9.4512 112.705L14.9488 133.021L22.9612 140.789C23.0269 140.408 23.2692 139.784 23.6182 139.029C24.8036 136.463 27.2191 132.386 28.1177 131.229C29.0737 129.998 34.7058 127.676 34.9759 130.632C35.488 136.236 42.4889 140.681 47.0421 143.505L58.902 139.262L70.4526 130.632L78.5999 115.826L88.9645 101.953L99.9478 84.2379L114.832 68.188L134.391 54.7626L153.988 50.6353L180.699 51.7651C162.644 51.7651 145.255 49.912 128.927 61.5902C115.651 71.0863 104.324 82.2342 95.1523 97.8369C90.0851 106.457 83.6501 113.664 78.5999 122.333C75.5772 127.522 73.5253 131.823 69.2667 135.478C62.1941 141.548 57.1253 144.464 49.2708 144.91C49.3017 144.93 49.3323 144.951 49.3625 144.971C53.7791 147.919 58.8272 148.556 63.7491 148.556C72.2654 148.556 79.165 142.581 87.8816 142.581C89.6162 142.581 91.6486 142.309 93.6635 142.246C92.4315 141.915 91.2272 141.447 89.9442 141.386C80.2853 140.926 79.8643 131.434 84.1689 121.736C88.051 112.99 106.711 117.484 112.53 118.682C116.798 114.969 117.164 112.281 122.048 111.591C127.746 110.788 133.334 112.758 139.024 112.705C145.878 112.641 153.698 111.331 160 107.555C164.17 105.056 167.312 102.164 170.921 98.6455C173.993 95.6509 177.336 93.0322 180.301 89.8757C184.234 85.6884 187.57 85.6624 192.438 84.2379C198.938 82.336 204.971 80.1314 211.685 80.1314C223.746 80.1314 235.523 82.6371 247.582 82.6371C260.797 82.6371 274.388 81.6571 285.751 71.7096C290.027 67.9657 294.562 70.9957 299.621 69.9619C300.866 69.7075 303.089 68.434 307.411 65.4896C318.547 57.9049 294.031 83.2368 291.482 85.1427C288.405 87.4425 286.188 89.1879 283.03 91.1692C283.078 91.1815 283.065 91.1915 282.983 91.1983C282.219 91.677 280.57 92.0498 278.775 92.2627C279.537 92.3528 279.956 92.3812 277.439 92.3898C276.168 92.4813 274.914 92.4886 273.928 92.3932C269.521 92.3932 265.204 92.8369 260.895 93.1288C255.966 96.9364 310.358 96.8754 304.97 99.2974C288.908 106.519 272.4 110.317 255.468 110.317C241.597 110.317 227.457 111.604 213.752 108.591C206.57 107.013 197.444 107.245 190.393 109.786C186.83 111.071 163.92 118.847 165.126 124.126C165.318 124.966 170.977 121.391 171.623 121.072C174.575 119.617 178.104 117.941 181.266 117.554C186.191 116.95 193.368 116.402 198.128 118.682C202.189 120.628 206.775 120.91 209.472 126.117C210.512 128.126 212.252 132.407 211.122 134.88C210.377 136.511 206.725 132.3 206.12 131.827C202.566 129.042 199.238 128.242 195.137 128.242C194.619 128.242 188.596 128.769 192.043 130.366C195.503 131.97 206.033 135.411 202.356 135.411C200.879 135.411 192.016 138.294 196.993 140.125C201.829 141.904 209.788 141.18 214.835 141.386C219.455 141.575 228.628 141.156 232.676 144.506C237.841 148.781 236.267 150.946 231.542 150.946C227.429 150.946 201.76 150.506 210.967 158.713C215.592 162.834 223.59 164.342 228.964 166.48C238.573 170.304 248.255 176.043 257.634 181.151C267.652 186.608 274.382 189.649 287.994 193.034H326.42L364.813 181.151L411.036 168.488C413.789 167.733 416.672 167.577 419.49 168.03L466.736 175.614L478.875 184.841C482.938 187.929 485.666 192.453 486.502 197.486L492.998 236.598L485.804 284.007C485.406 286.632 484.488 289.152 483.106 291.419L456.611 334.867L422.828 369.566C421.508 370.922 420.002 372.084 418.355 373.016L373.326 398.52L329.687 415.401C323.933 417.626 317.818 418.768 311.649 418.768H254.002C246.734 418.768 239.553 417.184 232.96 414.125L168.154 384.061L100.212 361.625C95.6425 360.116 90.6824 360.305 86.2413 362.158L75.6562 366.573C68.3734 369.611 63.5574 376.647 63.3616 384.535L62.6523 413.106L99.3662 453.529C102.119 456.56 105.735 458.673 109.727 459.582L160.523 471.158L208.643 489.184C210.887 490.024 213.263 490.455 215.659 490.455H269.531L320.982 484H325.945C327.434 484 328.919 484.166 330.371 484.496L404.375 501.292C408.627 502.257 412.447 504.585 415.253 507.921L434.376 530.653L458.577 572.453V642.617L435.361 691.404C434.706 692.78 433.896 694.077 432.947 695.27L399.448 737.333C397.724 739.497 395.569 741.281 393.12 742.57L356.101 762.06L312.632 750.476C310.517 749.912 308.509 749.005 306.688 747.791L282.306 731.537L262.765 717.057C254.152 710.675 243.716 707.23 232.997 707.23H198.937L111.256 723.454H25.5737L154.958 707.23H95.9752L32.6684 669.053L91.0635 695.071H122.965L132.975 680.104L73.5995 652.978L10.8385 615.441L98.7039 652.978H145.093L101.211 640.459L67.1266 620.874L24.8552 581.182L86.1025 620.874L192.321 652.978L241.133 643.763C252.454 641.626 264.166 643.464 274.288 648.966L299.621 662.737L315.47 675.622C319.036 678.521 323.491 680.104 328.087 680.104H346.35L362.555 671.246C365.505 669.633 368 667.304 369.811 664.472L396.834 622.22L390.767 584.296C389.601 577.006 384.513 570.951 377.533 568.546L356.265 561.219C354.169 560.497 351.968 560.128 349.751 560.128H320.982H266.509H213.853C212.644 560.128 211.438 560.019 210.249 559.801L141.211 547.151L88.8477 539.598C83.9758 538.895 79.5342 536.42 76.3729 532.647L26.9237 473.627C25.5534 471.992 24.4537 470.147 23.6662 468.164L1.60911 412.624C0.549289 409.955 0.0765368 407.089 0.222992 404.222L3.5229 339.608C3.68208 336.491 4.56844 333.454 6.11108 330.742L24.673 298.098C28.2282 291.846 34.8665 287.984 42.0588 287.984H103.35C105.459 287.984 107.556 288.318 109.561 288.973L181.225 312.388L233.301 344.353C244.139 351.006 257.105 353.279 269.56 350.71L342.976 335.564C345.209 335.103 347.346 334.264 349.296 333.083L393.97 306.023C395.812 304.908 397.461 303.503 398.854 301.862L428.818 266.572V248.284C428.818 241.83 423.586 236.598 417.132 236.598C415.861 236.598 414.599 236.806 413.395 237.212L356.101 256.545H287.994L257.634 247.021L201.428 223.572C196.076 220.936 190.898 218.028 185.133 217.863C181.305 217.753 177.849 214.809 174.098 214.809C171.733 214.809 178.805 233.015 179.771 235.057C182.054 239.886 179.843 237.186 176.986 236.982C173.287 236.717 169.194 232.318 165.899 230.41C160.294 227.162 155.014 223.54 149.192 220.916C144.987 219.021 137.275 211.75 137.075 220.253C136.932 226.318 131.422 215.267 130.371 214.278C127.567 211.64 126.14 207.517 123.1 205.316C121.051 203.831 113.581 201.318 112.891 205.316C112.284 208.831 106.805 204.664 105.311 203.523C103.321 202.006 89.4648 200.738 88.9645 202.992C88.8882 203.336 95.9837 216.784 89.9442 211.888C87.1854 209.652 82.4179 204.367 78.8061 207.639C75.7299 210.426 75.8704 218.333 71.2261 211.357C67.2382 205.367 62.084 208.549 57.716 202.926C56.3416 201.156 53.4599 191.574 56.8394 191.574C61.715 191.574 68.2466 192.902 64.6773 185.334C63.4972 182.831 57.0512 167.293 61.4287 174.181C63.4632 177.382 67.3193 186.639 70.4526 186.794C74.7671 187.008 76.1292 185.679 78.5999 181.085C79.9424 178.588 82.5833 172.433 84.633 171.26C91.4422 167.364 99.5498 168.87 106.909 168.87C108.676 168.87 119.477 171.892 119.749 171.193C120.443 169.405 113.493 164.704 112.736 164.356C107.911 162.137 103.623 161.7 98.5555 161.7C95.5768 161.7 93.0363 163.675 90.202 164.621C86.9751 165.698 83.6905 165.246 80.4562 166.48C74.2286 168.856 65.3624 167.057 58.902 166.214C58.0349 166.101 47.4806 164.961 48.3827 166.48C49.7853 168.841 51.6076 170.983 53.1267 173.251C55.8738 177.354 61.4011 185.879 53.5393 181.085C50.6918 179.348 48.0199 176.798 45.5982 174.247C42.2145 170.683 38.3075 167.402 34.5118 164.688C32.7522 163.429 29.0919 164.005 27.7568 162.63C25.7792 160.593 23.909 159.698 22.4971 156.323Z" fill="#FEE394"/>
</svg>
