<svg width="591" height="326" viewBox="0 0 591 326" fill="none" xmlns="http://www.w3.org/2000/svg">
<rect x="1.5" y="2.29456" width="588.117" height="319.857" fill="white" stroke="black"/>
<line y1="-0.5" x2="671.207" y2="-0.5" transform="matrix(0.877698 0.479214 -0.857838 0.51392 1 1)" stroke="black"/>
<line y1="-0.5" x2="672.78" y2="-0.5" transform="matrix(0.875646 -0.482954 0.860116 0.510099 1 325.922)" stroke="black"/>
<path d="M231.152 157.696C231.152 159.088 230.992 160.272 230.672 161.248C230.368 162.208 229.96 163 229.448 163.624C228.936 164.248 228.368 164.736 227.744 165.088C227.136 165.424 226.528 165.664 225.92 165.808C225.312 165.936 224.76 166 224.264 166H219.8C219.56 166 219.44 165.888 219.44 165.664V150.208C219.44 149.968 219.56 149.848 219.8 149.848H224.264C224.856 149.848 225.472 149.904 226.112 150.016C226.768 150.112 227.392 150.312 227.984 150.616C228.576 150.904 229.112 151.336 229.592 151.912C230.072 152.488 230.448 153.248 230.72 154.192C231.008 155.12 231.152 156.288 231.152 157.696ZM227.552 157.696C227.552 156.416 227.44 155.432 227.216 154.744C226.992 154.04 226.696 153.544 226.328 153.256C225.976 152.952 225.6 152.776 225.2 152.728C224.8 152.664 224.432 152.632 224.096 152.632H223.376C223.232 152.632 223.144 152.64 223.112 152.656C223.096 152.672 223.088 152.736 223.088 152.848V162.976C223.088 163.088 223.096 163.16 223.112 163.192C223.144 163.208 223.208 163.216 223.304 163.216H223.712C224.08 163.216 224.48 163.168 224.912 163.072C225.344 162.976 225.76 162.752 226.16 162.4C226.576 162.048 226.912 161.504 227.168 160.768C227.424 160.016 227.552 158.992 227.552 157.696ZM239.671 166.216C238.279 166.216 237.175 166.056 236.359 165.736C235.559 165.416 234.951 165.016 234.535 164.536C234.135 164.04 233.863 163.544 233.719 163.048C233.591 162.536 233.503 162.088 233.455 161.704C233.391 161.096 233.343 160.456 233.311 159.784C233.279 159.096 233.263 158.496 233.263 157.984C233.263 157.248 233.279 156.424 233.311 155.512C233.343 154.584 233.391 153.656 233.455 152.728C233.535 151.784 233.647 150.912 233.791 150.112C233.807 150 233.855 149.928 233.935 149.896C234.031 149.864 234.143 149.848 234.271 149.848C234.719 149.848 235.159 149.848 235.59 149.848C236.039 149.848 236.487 149.848 236.935 149.848C237.111 149.848 237.207 149.88 237.223 149.944C237.239 149.992 237.231 150.184 237.199 150.52C237.135 151.16 237.079 151.808 237.031 152.464C236.999 153.12 236.967 153.784 236.935 154.456C236.871 155.64 236.839 156.776 236.839 157.864C236.839 158.952 236.887 160.04 236.983 161.128C237.015 161.64 237.103 162.048 237.247 162.352C237.407 162.656 237.607 162.888 237.847 163.048C238.087 163.208 238.359 163.32 238.663 163.384C238.967 163.432 239.279 163.456 239.599 163.456C239.935 163.456 240.247 163.432 240.535 163.384C240.839 163.32 241.111 163.208 241.351 163.048C241.607 162.888 241.807 162.656 241.951 162.352C242.111 162.032 242.215 161.624 242.263 161.128C242.343 160.04 242.375 158.952 242.359 157.864C242.359 156.776 242.335 155.64 242.287 154.456C242.271 153.784 242.231 153.12 242.167 152.464C242.119 151.808 242.071 151.16 242.023 150.52C242.007 150.184 241.999 149.992 241.999 149.944C242.015 149.88 242.119 149.848 242.311 149.848C242.775 149.848 243.239 149.848 243.703 149.848C244.167 149.848 244.631 149.848 245.095 149.848C245.239 149.848 245.351 149.864 245.431 149.896C245.511 149.928 245.559 150 245.575 150.112C245.719 150.912 245.831 151.784 245.911 152.728C245.991 153.656 246.039 154.584 246.055 155.512C246.087 156.424 246.103 157.248 246.103 157.984C246.103 158.496 246.095 159.096 246.079 159.784C246.063 160.456 246.015 161.096 245.935 161.704C245.903 162.008 245.839 162.36 245.743 162.76C245.647 163.144 245.479 163.544 245.239 163.96C245.015 164.36 244.679 164.736 244.231 165.088C243.783 165.424 243.191 165.696 242.455 165.904C241.719 166.112 240.791 166.216 239.671 166.216ZM249.073 166C248.769 166 248.617 165.848 248.617 165.544C248.617 164.456 248.633 163.24 248.665 161.896C248.713 160.536 248.777 159.152 248.857 157.744C248.937 156.32 249.033 154.96 249.145 153.664C249.273 152.352 249.417 151.2 249.577 150.208C249.609 150.08 249.641 149.992 249.673 149.944C249.721 149.88 249.809 149.848 249.937 149.848H251.641C251.817 149.848 251.937 149.864 252.001 149.896C252.081 149.928 252.153 150 252.217 150.112L255.625 155.776C255.673 155.856 255.737 155.896 255.817 155.896C255.897 155.896 255.961 155.856 256.009 155.776L259.465 150.112C259.545 149.984 259.617 149.912 259.681 149.896C259.745 149.864 259.857 149.848 260.017 149.848H261.697C261.889 149.848 262.001 149.968 262.033 150.208C262.177 151.2 262.313 152.352 262.441 153.664C262.569 154.976 262.673 156.344 262.753 157.768C262.849 159.176 262.921 160.552 262.969 161.896C263.017 163.24 263.041 164.44 263.041 165.496C263.041 165.688 263.009 165.824 262.945 165.904C262.881 165.968 262.745 166 262.537 166H259.801C259.561 166 259.441 165.864 259.441 165.592C259.441 165.08 259.433 164.552 259.417 164.008C259.417 163.464 259.409 162.912 259.393 162.352C259.377 161.776 259.353 161.2 259.321 160.624C259.289 160.048 259.257 159.472 259.225 158.896C259.193 158.32 259.161 157.752 259.129 157.192C259.113 157.112 259.081 157.072 259.033 157.072C258.985 157.072 258.937 157.112 258.889 157.192L256.537 160.792C256.457 160.888 256.361 160.936 256.249 160.936H255.337C255.193 160.936 255.081 160.872 255.001 160.744L252.793 157.312C252.729 157.184 252.673 157.136 252.625 157.168C252.577 157.2 252.553 157.248 252.553 157.312C252.489 158 252.433 158.632 252.385 159.208C252.353 159.784 252.321 160.376 252.289 160.984C252.273 161.592 252.257 162.28 252.241 163.048C252.241 163.816 252.241 164.728 252.241 165.784C252.241 165.928 252.177 166 252.049 166H249.073ZM266.135 166C265.831 166 265.679 165.848 265.679 165.544C265.679 164.456 265.695 163.24 265.727 161.896C265.775 160.536 265.839 159.152 265.919 157.744C265.999 156.32 266.095 154.96 266.207 153.664C266.335 152.352 266.479 151.2 266.639 150.208C266.671 150.08 266.703 149.992 266.735 149.944C266.783 149.88 266.871 149.848 266.999 149.848H268.703C268.879 149.848 268.999 149.864 269.063 149.896C269.143 149.928 269.215 150 269.279 150.112L272.687 155.776C272.735 155.856 272.799 155.896 272.879 155.896C272.959 155.896 273.023 155.856 273.071 155.776L276.527 150.112C276.607 149.984 276.679 149.912 276.743 149.896C276.807 149.864 276.919 149.848 277.079 149.848H278.759C278.951 149.848 279.063 149.968 279.095 150.208C279.239 151.2 279.375 152.352 279.503 153.664C279.631 154.976 279.735 156.344 279.815 157.768C279.911 159.176 279.983 160.552 280.031 161.896C280.079 163.24 280.103 164.44 280.103 165.496C280.103 165.688 280.071 165.824 280.007 165.904C279.943 165.968 279.807 166 279.599 166H276.863C276.623 166 276.503 165.864 276.503 165.592C276.503 165.08 276.495 164.552 276.479 164.008C276.479 163.464 276.471 162.912 276.455 162.352C276.439 161.776 276.415 161.2 276.383 160.624C276.351 160.048 276.319 159.472 276.287 158.896C276.255 158.32 276.223 157.752 276.191 157.192C276.175 157.112 276.143 157.072 276.095 157.072C276.047 157.072 275.999 157.112 275.951 157.192L273.599 160.792C273.519 160.888 273.423 160.936 273.311 160.936H272.399C272.255 160.936 272.143 160.872 272.063 160.744L269.855 157.312C269.791 157.184 269.735 157.136 269.687 157.168C269.639 157.2 269.615 157.248 269.615 157.312C269.551 158 269.495 158.632 269.447 159.208C269.415 159.784 269.383 160.376 269.351 160.984C269.335 161.592 269.319 162.28 269.303 163.048C269.303 163.816 269.303 164.728 269.303 165.784C269.303 165.928 269.239 166 269.111 166H266.135ZM290.134 159.4C290.038 159.528 289.966 159.712 289.918 159.952C289.886 160.176 289.87 160.376 289.87 160.552V165.664C289.87 165.76 289.83 165.84 289.75 165.904C289.686 165.968 289.614 166 289.534 166H286.582C286.342 166 286.222 165.888 286.222 165.664V160.552C286.222 160.12 286.102 159.688 285.862 159.256C285.622 158.808 285.422 158.456 285.262 158.2C285.214 158.104 285.094 157.904 284.902 157.6C284.726 157.296 284.526 156.96 284.302 156.592C284.078 156.224 283.87 155.888 283.678 155.584C283.502 155.264 283.39 155.056 283.342 154.96C282.91 154.128 282.566 153.4 282.31 152.776C282.07 152.152 281.894 151.648 281.782 151.264C281.686 150.864 281.622 150.616 281.59 150.52C281.526 150.248 281.558 150.072 281.686 149.992C281.814 149.896 281.966 149.848 282.142 149.848H284.974C285.214 149.848 285.366 149.96 285.43 150.184C285.59 150.728 285.742 151.208 285.886 151.624C286.046 152.04 286.198 152.408 286.342 152.728C286.486 153.032 286.606 153.288 286.702 153.496C286.926 153.928 287.118 154.304 287.278 154.624C287.454 154.928 287.622 155.208 287.782 155.464C287.894 155.64 287.982 155.736 288.046 155.752C288.11 155.768 288.198 155.672 288.31 155.464C288.358 155.368 288.414 155.272 288.478 155.176C288.558 155.08 288.638 154.96 288.718 154.816C288.814 154.656 288.918 154.464 289.03 154.24C289.158 154 289.318 153.672 289.51 153.256C289.718 152.824 289.926 152.336 290.134 151.792C290.358 151.248 290.534 150.696 290.662 150.136C290.694 150.008 290.742 149.928 290.806 149.896C290.87 149.864 290.982 149.848 291.142 149.848H294.094C294.222 149.848 294.334 149.896 294.43 149.992C294.542 150.072 294.574 150.248 294.526 150.52C294.51 150.616 294.446 150.88 294.334 151.312C294.238 151.728 294.062 152.272 293.806 152.944C293.566 153.6 293.222 154.344 292.774 155.176C292.678 155.384 292.518 155.672 292.294 156.04C292.086 156.392 291.846 156.784 291.574 157.216C291.318 157.648 291.062 158.056 290.806 158.44C290.55 158.824 290.326 159.144 290.134 159.4ZM305.142 165.664C305.142 165.888 305.022 166 304.782 166H301.902C301.646 166 301.518 165.888 301.518 165.664V150.208C301.518 149.968 301.646 149.848 301.902 149.848H304.782C305.022 149.848 305.142 149.968 305.142 150.208V165.664ZM308.37 166C308.066 166 307.914 165.848 307.914 165.544C307.914 164.456 307.93 163.24 307.962 161.896C308.01 160.536 308.074 159.152 308.154 157.744C308.234 156.32 308.33 154.96 308.442 153.664C308.57 152.352 308.714 151.2 308.874 150.208C308.906 150.08 308.938 149.992 308.97 149.944C309.018 149.88 309.106 149.848 309.234 149.848H310.938C311.114 149.848 311.234 149.864 311.298 149.896C311.378 149.928 311.45 150 311.514 150.112L314.922 155.776C314.97 155.856 315.034 155.896 315.114 155.896C315.194 155.896 315.258 155.856 315.306 155.776L318.762 150.112C318.842 149.984 318.914 149.912 318.978 149.896C319.042 149.864 319.154 149.848 319.314 149.848H320.994C321.186 149.848 321.298 149.968 321.33 150.208C321.474 151.2 321.61 152.352 321.738 153.664C321.866 154.976 321.97 156.344 322.05 157.768C322.146 159.176 322.218 160.552 322.266 161.896C322.314 163.24 322.338 164.44 322.338 165.496C322.338 165.688 322.306 165.824 322.242 165.904C322.178 165.968 322.042 166 321.834 166H319.098C318.858 166 318.738 165.864 318.738 165.592C318.738 165.08 318.73 164.552 318.714 164.008C318.714 163.464 318.706 162.912 318.69 162.352C318.674 161.776 318.65 161.2 318.618 160.624C318.586 160.048 318.554 159.472 318.522 158.896C318.49 158.32 318.458 157.752 318.426 157.192C318.41 157.112 318.378 157.072 318.33 157.072C318.282 157.072 318.234 157.112 318.186 157.192L315.834 160.792C315.754 160.888 315.658 160.936 315.546 160.936H314.634C314.49 160.936 314.378 160.872 314.298 160.744L312.09 157.312C312.026 157.184 311.97 157.136 311.922 157.168C311.874 157.2 311.85 157.248 311.85 157.312C311.786 158 311.73 158.632 311.682 159.208C311.65 159.784 311.618 160.376 311.586 160.984C311.57 161.592 311.554 162.28 311.538 163.048C311.538 163.816 311.538 164.728 311.538 165.784C311.538 165.928 311.474 166 311.346 166H308.37ZM324.304 166C324.144 166 324.048 165.936 324.016 165.808C323.984 165.68 324 165.424 324.064 165.04C324.16 164.336 324.32 163.488 324.544 162.496C324.768 161.488 325.032 160.424 325.336 159.304C325.64 158.184 325.968 157.064 326.32 155.944C326.672 154.824 327.032 153.784 327.4 152.824C327.768 151.848 328.12 151.032 328.456 150.376C328.552 150.216 328.64 150.088 328.72 149.992C328.816 149.896 328.928 149.848 329.056 149.848H331.432C331.56 149.896 331.672 149.96 331.768 150.04C331.864 150.104 331.952 150.216 332.032 150.376C332.384 151.032 332.744 151.848 333.112 152.824C333.48 153.784 333.84 154.824 334.192 155.944C334.544 157.064 334.872 158.184 335.176 159.304C335.48 160.424 335.744 161.488 335.968 162.496C336.192 163.488 336.352 164.336 336.448 165.04C336.512 165.424 336.528 165.68 336.496 165.808C336.464 165.936 336.36 166 336.184 166H333.352C333.208 166 333.104 165.96 333.04 165.88C332.992 165.8 332.936 165.584 332.872 165.232C332.808 164.88 332.72 164.464 332.608 163.984C332.512 163.504 332.432 163.112 332.368 162.808C332.352 162.68 332.328 162.608 332.296 162.592C332.28 162.576 332.216 162.568 332.104 162.568H328.408C328.296 162.568 328.232 162.576 328.216 162.592C328.2 162.608 328.176 162.68 328.144 162.808C328.08 163.112 327.992 163.504 327.88 163.984C327.784 164.464 327.704 164.88 327.64 165.232C327.576 165.584 327.512 165.8 327.448 165.88C327.4 165.96 327.304 166 327.16 166H324.304ZM329.176 159.808H331.336C331.448 159.808 331.512 159.792 331.528 159.76C331.544 159.712 331.536 159.632 331.504 159.52C331.344 158.88 331.16 158.2 330.952 157.48C330.76 156.744 330.584 156.104 330.424 155.56C330.392 155.416 330.344 155.344 330.28 155.344H330.184C330.136 155.344 330.088 155.416 330.04 155.56C329.944 155.912 329.832 156.312 329.704 156.76C329.576 157.208 329.448 157.672 329.32 158.152C329.208 158.616 329.096 159.072 328.984 159.52C328.968 159.632 328.968 159.712 328.984 159.76C329 159.792 329.064 159.808 329.176 159.808ZM349.314 165.184C349.314 165.408 349.162 165.592 348.858 165.736C348.57 165.88 348.178 165.984 347.682 166.048C347.186 166.112 346.626 166.144 346.002 166.144C343.074 166.144 340.882 165.472 339.426 164.128C337.986 162.768 337.266 160.784 337.266 158.176C337.266 156.432 337.594 154.928 338.25 153.664C338.922 152.4 339.842 151.432 341.01 150.76C342.194 150.072 343.538 149.728 345.042 149.728C345.73 149.728 346.394 149.752 347.034 149.8C347.674 149.848 348.17 149.936 348.522 150.064C348.778 150.144 348.954 150.208 349.05 150.256C349.162 150.304 349.218 150.448 349.218 150.688V152.608C349.218 152.96 349.138 153.176 348.978 153.256C348.834 153.336 348.666 153.32 348.474 153.208C348.074 152.984 347.666 152.816 347.25 152.704C346.85 152.576 346.378 152.512 345.834 152.512C345.402 152.512 344.914 152.584 344.37 152.728C343.826 152.872 343.306 153.144 342.81 153.544C342.33 153.928 341.93 154.48 341.61 155.2C341.29 155.92 341.13 156.864 341.13 158.032C341.13 159.232 341.274 160.192 341.562 160.912C341.866 161.616 342.234 162.144 342.666 162.496C343.114 162.848 343.562 163.08 344.01 163.192C344.474 163.304 344.866 163.36 345.186 163.36C345.522 163.36 345.69 163.248 345.69 163.024V159.376C345.69 159.296 345.682 159.248 345.666 159.232C345.65 159.216 345.602 159.208 345.522 159.208H343.05C342.874 159.208 342.754 159.192 342.69 159.16C342.642 159.128 342.618 159.016 342.618 158.824V156.88C342.618 156.688 342.642 156.568 342.69 156.52C342.738 156.456 342.858 156.424 343.05 156.424H348.786C349.058 156.424 349.21 156.456 349.242 156.52C349.29 156.568 349.314 156.728 349.314 157V165.184ZM352.316 166C352.076 166 351.956 165.888 351.956 165.664V150.208C351.956 149.968 352.076 149.848 352.316 149.848H360.476C360.7 149.848 360.828 149.864 360.86 149.896C360.908 149.928 360.932 150.048 360.932 150.256V152.176C360.932 152.4 360.9 152.536 360.836 152.584C360.788 152.616 360.668 152.632 360.476 152.632H355.82C355.708 152.632 355.644 152.64 355.628 152.656C355.612 152.672 355.604 152.728 355.604 152.824V156.28C355.604 156.392 355.612 156.456 355.628 156.472C355.644 156.488 355.7 156.496 355.796 156.496H359.396C359.636 156.496 359.772 156.52 359.804 156.568C359.852 156.616 359.876 156.768 359.876 157.024V158.728C359.876 158.968 359.852 159.112 359.804 159.16C359.756 159.208 359.62 159.232 359.396 159.232H355.796C355.716 159.232 355.66 159.24 355.628 159.256C355.612 159.272 355.604 159.32 355.604 159.4V163C355.604 163.096 355.612 163.16 355.628 163.192C355.644 163.208 355.7 163.216 355.796 163.216H360.404C360.676 163.216 360.828 163.248 360.86 163.312C360.908 163.36 360.932 163.504 360.932 163.744V165.472C360.932 165.728 360.9 165.88 360.836 165.928C360.772 165.976 360.62 166 360.38 166H352.316Z" fill="#C24848"/>
</svg>
