<?xml version="1.0" encoding="UTF-8"?><svg xmlns="http://www.w3.org/2000/svg" width="199" height="157" viewBox="0 0 199 157"><defs><style>.cls-1,.cls-2,.cls-3,.cls-4{stroke:#c24848;}.cls-2,.cls-5{fill:#c24848;}.cls-3{stroke-miterlimit:10;}.cls-3,.cls-4{fill:none;}.cls-5{stroke-width:0px;}</style></defs><g id="dragongrillhover"><path class="cls-4" d="m144.16,14.71l-.32.97c-.28.86-1.2,1.34-2.07,1.09l-1.33-.39c-.85-.25-1.43-1.02-1.43-1.91v-1.92c0-.66.27-1.3.75-1.76l1.51-1.44c.69-.66,1.6-1.02,2.55-1.02h1.99c1.57,0,3.04.79,3.9,2.1l.94,1.42.66,1.46c.75,1.66.9,3.53.41,5.28v.02c-.48,1.7-1.54,3.18-3.01,4.16l-2.97,1.99h-7.9l-1.39.3c-1.53.34-2.82,1.37-3.49,2.79l-2.94,6.29v-7.88l1.2-2.59c.72-1.56,2.04-2.77,3.67-3.35l2.62-.94,3.75-1.01,1.89-1.83"/><polyline class="cls-2" points="92.61 52.15 94.43 49.89 96.15 49.39 97.73 50.26 99.08 52.18 97.73 53.95 95.77 58.66 94.13 54.03 92.61 52.15 92.61 52.15"/><path class="cls-5" d="m88.77,66.87l2.63-.21,2.23-1.14,2.22-2.25,2.3,2.35,2.06,1.36h1.66s-1.82,4.82-1.82,4.82l-1.53-2.2c-.14-.17-.31-.3-.51-.39l-1.85-.49-1.38.28-1.49.66-.83.57-1.06,2.24-.62-3.24-2.01-2.36"/><path class="cls-2" d="m87.25,78.5l1.52,3.42.47.9c.19.38.69.46,1,.17l2.32-2.16c.69-.64,1.54-1.07,2.47-1.24l.98-.18c.48-.09.98-.09,1.46,0l.55.09c1.31.22,2.49.94,3.29,2l1.37,1.81s.51-.53.33-.87l.27-1.63-2.5-2.31-1.94-1.75-2.1-.84-2.23.29-2.47,2.3-1.57,2.13.33-3.42,1.64-2.97,2.73-1.21,2.67.14,2.54,2.32.9,1.79,2.02,3.55.77-2.14-1.51-2.31-2.33-4.07-3.57-1.33-2.22.27-1.8.64-1.7,1.3-3.66,5.33"/><path class="cls-2" d="m80.46,85.11l-.62.65c-.23.24-.39.53-.46.84l-.57,2.33c-.08.32-.07.66.03.97l.42,1.36c.11.35.32.66.6.89l.57.46c.49.4,1.15.52,1.75.32l2.62-.87c.25-.08.51-.11.76-.09l4.08.4-4.57-1.53c-.13-.04-.25-.1-.37-.17l-.39-.23c-.67-.41-1.01-1.19-.85-1.96l.05-.24.65-.15.81.04c.47.02.91.22,1.23.56l.98,1.01s.08.09.12.14l.54.68c.14.18.31.33.51.44l1.07.63c.14.08.27.18.38.3l.36.36c.27.27.62.46,1,.53l2.67.47,1.96.39c.25.05.51.05.75,0l2.84-.63c.09-.02.17-.04.25-.08l2.13-.81c.31-.12.59-.32.8-.58l1.41-1.79c.06-.07.12-.14.19-.2l1.6-1.51c.22-.21.48-.35.77-.43l.89-.25.75.74-.38.84c-.24.52-.7.91-1.26,1.04l-1.75.41c-.47.11-.87.39-1.13.8l-.63.98,2.99.21c.15.01.3.04.45.09l2.18.72c.62.21,1.31.06,1.8-.37l.85-1.3.32-.37c.1-.15-.02-.34.75-1.59l.28-1.61c-.05-.34-.37-1.44-.59-1.71l-.55-.97c-.29-.34-.7-.56-1.14-.62l-.44-.06c-.22-.03-.43-.02-.65.02l-2.18.47c-.22.05-.43.13-.61.26l-.74.48c-.3.19-.65.3-1,.3h-.48c-.41,0-.81-.14-1.13-.39l-1.98-1.53-1.9-1.39c-.21-.15-.45-.26-.7-.31l-1.91-.41c-.31-.07-.62-.05-.92.04l-1.27.38c-.16.05-.31.12-.46.21l-1.35.86c-.19.12-.35.27-.48.45l-.43.57c-.2.27-.48.48-.79.6l-1.52.61c-.15.06-.32.1-.48.12l-1.12.12c-.36.04-.72-.03-1.05-.19l-1.88-.97c-.19-.1-.39-.16-.6-.19l-1.11-.15c-.08-.01-.16-.02-.24-.02h-1.13c-.5,0-.98.2-1.33.57Z"/><path class="cls-4" d="m61.38,101l2.32,3,6,.36,6.27-.91,8.89-4.1,9.13-2.46h6.63l6.37,1.18,6.23,2.55,4.97,2.37,2.93,1,4.52.36,5.17-2.9-6.01.3-3.5-.74-6.83-2.93-.14-.07c-1.56-.73-2.89-1.87-3.87-3.28l-.84-1.21-4.69-.99c-1.78-.38-3.62-.31-5.36.2l-3.43,1-4.5-.92c-1.34-.27-2.72-.38-4.09-.31l-4.77.24-1.59.53-1.95,2.62c-.57.77-1.36,1.36-2.25,1.7l-10.36,3.87-5.26-.46"/><polygon class="cls-4" points="71.88 144.13 78.38 138.4 81.89 139.36 86.25 138.64 88.73 136.82 93.1 138.81 97.13 138.81 99.79 136.53 102.81 137.8 106.32 136.85 109.81 138.4 112.71 138.4 113.61 139.36 118.75 139.36 117.61 137.62 120.3 135.85 123.04 138.64 124.13 142.79 124.8 144.98 120.3 142.06 115.85 142.43 117.17 147.06 116.09 151.68 113.31 148.15 110.4 145.72 106.32 143.77 104.96 146.08 105.74 148.52 106.96 150.59 102.81 148.27 100.16 146.81 93.99 146.69 91.4 147.06 88.44 150.59 88.44 151.68 87.83 146.57 89.16 144.62 84.06 145.47 81 148.76 77.32 152.9 77.32 147.18 79.67 142.79 74.9 143.16 71.88 144.13"/><path class="cls-4" d="m83.8,100.24l2.24,3.44,2.73-2.8,2.37-.68,10.92-.28,1.98.74,2.21,2.99.29.7,1.26-3.4.8-1.97-2.17-.32-1.18.32c-.19.05-.38.06-.57.02l-2.27-.47-2.92-.92h-7.36l-1.56.92-1.77,1.04-5.02.67Z"/><polygon class="cls-2" points="86.54 98.9 88.82 99.57 92.14 97.61 99.5 97.61 105.19 98.83 105.48 98.53 100.63 96.9 93.99 96.9 86.54 98.9"/><polygon class="cls-4" points="82.1 100.63 81.56 104.12 79.93 104.83 78.05 106.18 77.48 102.75 82.1 100.63"/><polygon class="cls-4" points="72.66 104.36 76.05 108.45 77 107.3 77 102.98 75.97 103.45 72.19 104 72.66 104.36"/><polygon class="cls-4" points="111.48 99.91 111.96 109.6 113.26 111.34 118.16 106.99 119.84 103.56 116.68 102.27 111.48 99.91"/><polyline class="cls-4" points="82.93 127.03 83.53 124.4 84.64 122.52 86.35 124.77 87.64 128.56 87.64 128.56 85.74 127.76 84.38 127.03 82.93 127.03"/><polyline class="cls-4" points="91.62 119.37 94.32 123.55 96.28 126.45 98.15 127.76 102.11 127.96 102.81 127.3 100.56 124.82 100.73 123.02 102.81 120.24 103.51 118.82 98.43 111.61 98.43 120.56 95.59 120.56 95.59 115.06 93.46 117.67 91.62 119.37"/><path class="cls-2" d="m76.71,117.77l1.67,9.54v2.27l1.76-1.61,2.79-.66,1.94-4.79,1.94,2.39,1.45,4.02,1.57-1.27,2.19-1.01,4.25.5,2.85,2.32-1.21.95-.97-.2-1.01-.52-.77-.09-.88-.09-.85.42.57.61,1.17.24.94.2,2.66.85.16-1.44,1.87-1.46,2.73-.32,2.21-1.97,2.47-4.12,2.19,3.2.34,1.83.84-.25h2.2l1.55-5.33.82-9.01,1.51-3.11,1.51-.68,1.54-2.36,3.34-2.46-2.91-.36-1.28-.44-1.68,3.43-1.82,1.62-3.07,2.73.18-2.55c.04-.5,0-1.01-.13-1.5l-1.84-7.39-3.38-1.38-.29,2.43-1.26,3.4-.61-1.14-1.39-1.88-.5-.67-1.26-.47c-.48-.18-.98-.26-1.49-.25l-4.37.11-4.03.1-1.75.04-2.37.68-2.47,3.11h1.96l2.24.97,2.45,1.79,1.69,2.25.52.92v-5.93l7.19.36,5.55,7.92v-7.92h2.14v16.2h-5.3l-1.23-1.74-.69,1.43-2.09,2.78-.16,1.8,2.25,2.49-.7.66-3.96-.2-1.88-1.31-4.65-7.08-2.47,1.19h-4.29l-3.85-.1-2.95-1.29-1.36-1.4"/><polygon class="cls-2" points="70.62 104.23 72.19 104 76.05 108.45 75.19 109.67 74.58 112.46 73.2 111.24 72.44 107.26 70.01 104.36 70.62 104.23"/><polygon class="cls-2" points="99.29 132.1 100.16 133.66 99.72 136.04 100.37 136.55 102.17 134.09 104.97 133.92 104.25 137.02 106.32 136.34 105.86 134.01 106.88 132.44 109.35 131.55 109.35 128.54 110.72 127.55 108.19 127.55 107.34 128.67 107.56 131.42 103.87 131.17 102.81 131.68 101.07 132.29 99.29 132.1"/><polygon class="cls-2" points="82.4 100.63 81.56 104.12 86.04 104 83.61 99.93 82.4 100.63"/><line class="cls-2" x1="74.39" y1="39.09" x2="72.83" y2="43.64"/><line class="cls-2" x1="115.94" y1="38.49" x2="118.04" y2="42.63"/><path class="cls-4" d="m87.84,37.32l4.19-2.76,2.04-.38c1.37-.25,2.78-.17,4.11.24l1.88.58,2.92,2.55-.62,2.13-3.19-1.6-3.02-.46-2.73.17-4.63,2.32-.96-2.79Z"/><path class="cls-2" d="m88.8,40.11l2.47.14c1.16.06,2.25.6,3.01,1.48l.13.15c.56.65.96,1.43,1.15,2.26l.4,1.72.45-2.27c.28-1.39,1.17-2.58,2.43-3.23h0c.62-.32,1.33-.39,2-.21l1.91.53-1.48-1.43c-.57-.55-1.29-.92-2.07-1.07l-2.16-.41c-.58-.11-1.18-.15-1.77-.11l-.93.06c-.6.04-1.19.16-1.75.36l-1.69.61-2.09,1.41"/></g><g id="logo-2"><path class="cls-4" d="m75.64,35.07l-2.39-5.62v-8.2l2.39-5.4,1.63-4.52v-2.57c0-1.66-.93-3.18-2.41-3.94l-.98-.5c-.93-.48-2.05-.43-2.93.14l-2.72,1.73-2.89,5.15-1.51,8.84.5,5.86,3.01,5.52,5.02,5.65,2.01,1.88,1.26-4.02Z"/><path class="cls-4" d="m65.13,27.49l1.77-2.36,1.31-.65c.59-.29,1.24-.42,1.89-.38l1.45.09,1.69,1"/><path class="cls-4" d="m64.24,17.79l2.71-2.99,1.59-.36c.38-.09.77-.13,1.16-.13h1.95l1.84,1.21,1.48,1.84"/><path class="cls-4" d="m73.26,26.37l.23-.34,2.82-1.68.75-.26c.7-.24,1.44-.33,2.18-.24l1.64.2,1.9,1.12"/><polyline class="cls-4" points="75.64 35.07 77.87 33.89 80.49 33.41 82.33 33.66 85 34.24"/><polyline class="cls-4" points="75.97 47.03 76.92 44.07 79.85 40.64 85.9 39.68 88.77 40.79"/><path class="cls-4" d="m75.64,15.85l2.22-.72,2.25.36,2.12,2.6.54,3.33v4.35l1.12,4.85,1.62,5.33,1.79.99c.77.42,1.27,1.21,1.33,2.08l.68,9.62-.31-.12-5.01-1.99-4.57-3.88.38,7.08-5.2-3.63-5.76-7.89-1.32-2.51-.84,5.82c-.19,1.29.1,2.61.81,3.71l2.1,3.25,2.18,4.2h-2.18l-1.99-1.82-.86-.87.37,2.35c.16,1.03.64,1.99,1.36,2.74l2.06,2.14,2.22,2.5c.4.45.91.77,1.47.95l5.85,1.39-.66-4.4,1.11,4.78,1.83,1.73,2.82,1.81c.73.47,1.57.74,2.44.79l1.97.12c1.09.07,2.16-.2,3.09-.77l.93-.57c1.34-.82,2.15-2.28,2.15-3.84v-3.01l-1.31-3.87c-.24-.7-.62-1.34-1.13-1.88l-2.22-2.33-1.79-1.95"/><polygon class="cls-4" points="86.31 17.43 86.31 22.83 87.09 26.08 89.05 30.64 90.24 32.48 90.78 32.48 89.97 30.97 89.1 29.12 87.64 26.19 86.88 22.72 87.04 17.43 86.31 17.43"/><polygon class="cls-4" points="90.78 15.13 90.46 23.1 90.78 25.54 92.74 29.45 93.6 29.45 93.06 28.2 91.76 25.21 91.11 23.48 91.22 22.29 91.33 18.65 91.38 15.13 90.78 15.13"/><polygon class="cls-4" points="94.53 14.31 94.53 20.17 95.01 24.24 95.45 26.03 95.77 24.29 95.15 20.17 95.15 14.31 94.53 14.31"/><path class="cls-4" d="m47.13,16.23l.32.97c.29.86,1.2,1.34,2.08,1.09l1.37-.39c.85-.24,1.43-1.02,1.43-1.9v-1.91c0-.67-.27-1.3-.76-1.76l-1.52-1.44c-.7-.66-1.62-1.03-2.58-1.03h-2.01c-1.59,0-3.07.79-3.94,2.11l-.94,1.41-.67,1.46c-.76,1.66-.9,3.53-.41,5.28h0c.48,1.71,1.56,3.19,3.04,4.18l.23.15c1.8,1.2,3.92,1.84,6.08,1.84h4.65l.25.05c2.27.49,4.19,2.02,5.18,4.12l2.45,5.21v-7.88l-2.35-5.03-5.2-1.84-3.78-1.01-1.91-1.83"/><path class="cls-2" d="m84.82,52.62l-.82,1.02c-.11.21-.45,1.6-.37,1.82l1.22,3.7c.02.06.04.11.08.17l1.03,1.76c.11.18,1.55,1.68,1.76,1.75l2.16.69c.35.11.74-.01.96-.31l.94-1.29c.17-.23-.04-1.28-.13-1.54l-.82-2.45c-.02-.06-.05-.12-.08-.17l-1.97-4.03c-.11-.18-1.53-1.32-1.73-1.38l-1.2-.15c-.4-.13-.83.05-1.03.42Z"/><path class="cls-4" d="m80.04,65.03l-1.28,1.17c-.48.44-.8,1.02-.92,1.66l-.49,2.7c-.05.27-.04.54.01.81l.3,1.43c.22,1.05.87,1.96,1.79,2.52l.96.58c.51.31,1.12.39,1.69.23l.86-.24c.35-.1.67-.3.92-.57l1.52-1.67c.22-.24.36-.54.4-.87l.42-3.32c.05-.37,0-.75-.13-1.11l-.7-1.85c-.14-.37-.39-.68-.72-.89l-.93-.6c-.87-.56-1.95-.71-2.94-.4l-.12.04c-.24.07-.47.2-.65.37Z"/><path class="cls-2" d="m81.79,69.67c-.25.07-.47.93-.47.93-.07.14-.07.31.01.45,0,0,.23.75.46.81.29.07.79-.49.94-.75.1-.19.08-.66,0-.86-.11-.25-.67-.66-.94-.59Z"/><path class="cls-4" d="m76.25,61.09l-2.31,2.04c-.74.65-1.19,1.56-1.25,2.54l-.31,4.59,1.64,4.17,4.67,1.41,6.52,1.47c.3.07.59.19.85.37l1.19.81,3.36-4.69c.14-.19.24-.41.3-.64l.41-1.61c.21-.82,0-1.69-.54-2.33l-2.01-2.36-1.14-.13-2.44-.79-2.82-1.81-1.83-1.73-1.11-.15-3.77-1.17"/><path class="cls-4" d="m67.51,45.22l-3.67-1.86-7.37-.65h-3.54l-2.62-3.62,2.79,2.88,1.64-.19,1.45-2.69v-3.06l-1.52-1.49c-.53-.52-1.21-.85-1.95-.95l-1.39-.18h-1.08c-1.42,0-2.78.6-3.75,1.65h0c-.72.78-1.17,1.77-1.3,2.83l-.37,3.11v3.63l.76,2.41,2.67,2.67,2.54,1.73,4.35,1.53,5.56,1.21,4.92,3.67,3.14,4.15,1.08,3.37v-8.91l-2.86-1.69-4.73-2.79-3.93-1.6c-.44-.18-.9-.28-1.37-.29l-1.32-.04,1.28-.8q.76-.12,1.83.24l4.27,2.24,6.83,4.72-1.87-2.44c-.4-.53-.67-1.14-.79-1.79l-.42-2.26,2.13,2.01c.46.44,1.07.68,1.71.68h1.19l-3.51-4.28-6.28-1.3-1.49-.03.13-.08c.63-.41,1.39-.56,2.14-.43l5.43.95,3.03,4.49-3.72-6.76"/><path class="cls-4" d="m72.38,65.36h-1.56c-.64,0-1.27.17-1.83.5l-1.56.93c-.52.31-.95.74-1.27,1.25l-.88,1.44c-.31.5-.47,1.08-.47,1.67v2.44l2.61,1.22.47-2.8c.06-.37.24-.7.5-.97l1.71-1.1,2.29-.95v-3.64Z"/><path class="cls-2" d="m78.69,75.85h-4.87l-2.03,1.2-4.38-2.23.2-2.62c.04-.49.27-.95.65-1.27l.56-.47c.62-.52,1.34-.89,2.12-1.09l1.43-.37,1.64,5.43,4.67,1.41Z"/><polygon class="cls-2" points="59.89 79.19 62.03 77.05 66.02 77.05 71.79 80.26 75.97 84.55 70.12 84.55 64.81 80.8 60.76 79.68 59.13 80.28 59.89 79.19"/><path class="cls-2" d="m72.38,78.5l6.31,4.45,1.92-.59c1.42-.43,2.92-.46,4.35-.06l4.19,1.15c.98,0,.18-.11.1-.18l-4.49-3.73c-.81-.67-1.78-1.14-2.82-1.34l-1.04-.2c-.98-.19-1.99-.23-2.99-.12l-5.52.63Z"/><polyline class="cls-2" points="88.77 40.79 95.15 45.84 92.95 47.45 91.12 50.59 89.02 48.51 88.77 40.79"/><path class="cls-4" d="m40.44,52.51l1.81,2.45h3.48l1.5-1.6c.83-.88,1.22-2.09,1.07-3.29l-.05-.38-2.07-2.06c-.4-.4-.88-.7-1.41-.89l-1.14-.4c-1.25-.44-2.61-.47-3.88-.11l-.16.05c-1.63.47-2.99,1.62-3.72,3.15l-1.2,2.53,1.6,5.87,4.16,4.9,6.2,2.62h8.71l4.66,1.97,4.79,2.93.97-1.58-2.96-3.32-3.84-1.65-3.84-.97-.5-.48,2.55.48,3.18,1.1,3.39,1.98,2.35,2.3.9-1.09-1.52-2.32-3.09-2.42-3.9-1.57-.2-.43,2.46,1.34,1.64.66,1.68,1.31,1.41,1.11,1.92,2.08,2.42-1.44-1.08-3.37-3.14-4.15-4.92-3.67-5.56-1.21-4.84,1.79-.07.95,2.77,1.84.65.43v1.63l-.62-1.34-1.56-1.17-1.52-.94-.55-.59-1.33-.12-3.94.04-.94-.2-.93-.33"/><path class="cls-4" d="m77.28,85.07l-.43.68c-.54.85-.62,1.92-.21,2.85l.28.63c.24.55.61,1.03,1.07,1.4l3.23,2.63-1.8,2.38c-.53.71-1.25,1.25-2.06,1.59l-4.96,2.05-5.74,2.18h-3.63l-1.63-.46-1.98-.56,3.93-1.02c.97-.25,1.84-.78,2.5-1.52l1.85-2.06-.51-.51c-.75-.75-1.71-1.24-2.76-1.39l-3.16-.47c-.81-.12-1.58-.47-2.2-1l-1.9-1.62-.79-1.66,3.66.38,5.06-.11c.6-.01,1.17-.28,1.57-.74l1.04-1.2-4.67-2.96-3-2.16-.61-2.03,1.36-.68,4.04,1.12,5.31,3.75,7.16.53Z"/><path class="cls-4" d="m59.12,84.57l.89.99,4.15,2.48.82.61c.59.44,1.41.35,1.89-.21l.81-.94-4.47-1.6-2.14-.86-1.95-.47Z"/><path class="cls-4" d="m60.01,89.55l-3.22-2.63-2.74-3-.34-1.54,3.44-4.7,2.25-1.32,2.63.67h3.99l5.77,3.22,5.48,4.81,1.41-2.13-6.31-4.45-4.96-3.68-2.61-1.22h-3.5l-3.55.48c-1.34.18-2.57.86-3.43,1.91l-2.07,2.51-4,4.53-4.07,1.52-5.32-.4c-.69-.05-1.37-.23-2-.52l-4.37-2.05-3.34-3.27c-.41-.4-.75-.88-.98-1.41l-.99-2.21c-.48-1.08-.63-2.29-.42-3.45l.41-2.23,2.41-3.64,5.09-2.16-5.09-.94-1.01.17c-1.73.29-3.21,1.39-3.98,2.96l-.96,1.97c-.14.28-.24.59-.31.89l-.56,2.53c-.32,1.46-.21,2.97.32,4.37l.96,2.54,3.23,3.98,4.36,2.87,3.51,2.04c.94.54,1.97.89,3.05,1.02l3.82.46c.4.05.8.05,1.2,0l2.61-.31c1.31-.16,2.56-.66,3.62-1.45l2.35-1.76,1.9-2.16"/><path class="cls-4" d="m40.44,62.75l-1.83.97-2.33,3.16v3.9l1.17,4.05,4.24,2.87,3.13,1.39,5.41,1.71,2.03-2.3s-4.27-1.14-4.9-1.63c-.19-.14-.46-.64-.46-.64l2.85,1.46,3.02.19,1.54-1.86c.88-1.06,2.12-1.75,3.48-1.94l3.51-.48h3.5v-3.34l-3.4-2.08-5.33,4.15.28-.77c.85-.93,1.67-1.96,2.25-2.1l.57-.29,1.59-1-3.62-2.05-4.89,3.67-2.03,2.07,1.3,2.95-2.41-1.8-2.48-1.16h-3.24c-1.29-.06-2.4-.93-2.76-2.17l-.2-.7,1.94,1.88c.17.17.36.32.57.43.16.08.32.15.48.22.74.27,1.56.15,2.25-.22l.96-.53.51-1.26c.29-.71.32-1.49.09-2.22l-.6-1.93-3.91-1.65-2.29-.97Z"/><polygon class="cls-2" points="48.71 71.77 50.23 71.87 51.53 74.82 49.12 73.02 46.64 71.87 48.71 71.77"/><polygon class="cls-4" points="99.19 14.8 99.5 22.88 97.73 28.09 98.32 28.69 100.06 22.99 99.84 14.8 99.19 14.8"/><polygon class="cls-4" points="103.37 17.43 102.34 26.68 99.5 31.89 99.79 32.48 102.88 26.9 103.91 17.43 103.37 17.43"/><g id="bogstaver"><path class="cls-3" d="m1.81,104v16.56h12.46c1.33,0,2.61-.52,3.56-1.46l1-.98c1.53-1.5,2.39-3.56,2.39-5.7v-1.51c0-1.48-.56-2.91-1.58-4l-1.22-1.31c-.7-.75-1.6-1.26-2.6-1.46l-.67-.14H1.81Z"/><path class="cls-3" d="m10.28,106.76v11.59h0c1.9-.49,3.22-2.2,3.22-4.15v-3.7c0-1.43-.85-2.73-2.17-3.29l-1.05-.45Z"/><path class="cls-3" d="m21.23,104l-.25,16.56h8.56v-6.37h0c1.18.34,2,1.42,2,2.65v3.72s8.91,0,8.91,0v-4.28c0-1.13-.56-2.19-1.5-2.82l-1.35-.91,1.66-1.21c.75-.55,1.19-1.42,1.19-2.34v-.91c0-.85-.38-1.65-1.02-2.19l-.77-.64c-.98-.82-2.22-1.27-3.5-1.27h-13.92Z"/><path class="cls-3" d="m29.59,106.76v5.15l.89-.49c.72-.4,1.17-1.16,1.17-1.98v-.59c0-.57-.31-1.1-.81-1.38l-1.24-.7Z"/><polygon class="cls-3" points="40.44 114.47 44.75 104 52.82 104 60.01 120.56 49.54 120.56 47.46 115.59 43.49 115.52 42.16 120.56 40.44 120.56 40.44 114.47"/><polygon class="cls-3" points="45.76 110.16 44.81 113.19 46.64 113.19 45.76 110.16"/><path class="cls-3" d="m57.31,110.75l.62-3.04c.62-1.12,1.52-2.07,2.6-2.76l.09-.06c.92-.58,1.99-.89,3.08-.89h4.28c1.48,0,2.85.75,3.65,2l.8,1.26.76,3.98h-1.78l-.69-3.06c-.09-.72-1.14-1.08-2.22-1.48h-.83c-.68.13-1.2.45-1.2.45h0c-.45.24-1.1,1.28-1.13,1.79l-.17,3.08.04,1.48c-.06.9.54,1.5,1.02,2.27l.65,1.03v-4.51l7.7.18.32,8.1h-11.19c-2.25,0-4.28-1.33-5.18-3.39l-.73-1.69c-.65-1.49-.82-3.14-.5-4.73Z"/><path class="cls-3" d="m77.55,106.76l-.55.54c-.93.91-1.59,2.06-1.93,3.32l-.49,1.84.69,3.31,1.43,1.99c.55.77,1.26,1.41,2.08,1.88l.05.03c1.01.58,2.15.88,3.32.88h5.78c1.32,0,2.61-.42,3.68-1.19l.88-.63.96-1.07c1.09-1.22,1.69-2.79,1.69-4.42v-1.85c0-1.48-.57-2.91-1.58-3.98l-.62-.66-1.42-1.11c-.84-.66-1.8-1.14-2.83-1.42l-.85-.23h-5.94c-1.24.44-2.97,1.19-3.84,2.18l-.5.57Z"/><polygon class="cls-3" points="95.59 104.36 95.59 120.56 98.43 120.56 98.43 111.61 104.74 120.56 110.03 120.56 110.03 104.36 107.89 104.36 107.89 112.28 102.34 104.36 95.59 104.36"/><path class="cls-3" d="m84,107.69h0c-.32.32-.5.75-.5,1.2v7.05c.07.37.27.78.46,1.1l.68.47c.41.26.95.19,1.28-.17l.24-.27c.41-.45.63-1.04.63-1.65v-5.98c0-.75-.35-1.45-.95-1.89h0c-.57-.42-1.35-.36-1.85.14Z"/><path class="cls-3" d="m133.66,111.16l-.65-2.12-1.47-1.23q-1.14-.78-2.74-.78h0c-.57-.11-1.56,1.43-1.58,2.12l-.13,2.07.09,2.47c0,.71.34,1.24.66,1.88l.79,1.58.18-4.86,7.76.18v8.1h-11.56c-1.19,0-2.33-.46-3.18-1.29l-1.32-1.29-.96-1.73c-.51-.92-.78-1.95-.78-3v-2.03c0-1.25.42-2.47,1.19-3.46l.73-.94,1.66-1.31c.94-.74,2.1-1.15,3.3-1.15h3.68c1.77,0,3.08.68,4.28,1.97l.88,1.24.33,1.17.38,2.3-1.53.11Z"/><path class="cls-3" d="m136.57,104.36v16.2h8.84v-6.4l.32.14c.86.39,1.42,1.25,1.42,2.2v4.06h8.27v-4.15c0-1.36-.66-2.63-1.77-3.42l-.76-.54,1.26-.41c.48-.16.9-.46,1.21-.87l.5-.68v-2.79c0-.87-.42-1.69-1.14-2.19h0c-1.07-.76-2.35-1.16-3.67-1.16h-14.48Z"/><path class="cls-3" d="m145.23,107.02v4.62l1.57-.7.21-.45c.46-.99.28-2.17-.46-2.98l-.05-.06-1.26-.44Z"/><rect class="cls-3" x="155.86" y="104.36" width="7.7" height="16.42"/><polygon class="cls-3" points="172.73 104.36 163.56 104.36 163.56 120.78 179.68 120.56 179.68 117.23 172.73 117.07 172.73 104.36"/><polygon class="cls-3" points="179.68 104.36 179.68 120.56 196.63 120.78 196.63 117.33 188.49 117.28 188.44 104.36 179.68 104.36"/><polygon class="cls-3" points="21.23 127.3 21.23 138.4 32.41 138.4 32.41 136.28 27.36 136.28 27.36 134.24 30.13 134.24 30.21 131.47 27.27 131.38 27.44 129.51 32.41 129.59 32.41 127.3 21.23 127.3"/><polygon class="cls-3" points="37.75 127.3 32.41 127.3 32.41 129.59 33.52 131.07 34.9 132.85 32.41 136.28 32.41 138.4 33.82 138.4 35.9 135.58 37.25 138.4 42.68 138.4 42.68 135.44 40.44 132.49 43.09 129.47 43.09 127.3 41.61 127.3 39.33 130.27 37.75 127.3"/><path class="cls-3" d="m43.09,132.31v-5.01h8.94c.76,0,1.49.3,2.04.83h0c.46.46.73,1.08.73,1.73v1.07c0,.66-.25,1.29-.7,1.77l-.68.73c-.56.6-1.35.95-2.17.95h-2.85v4l-5.3-.1v-5.99Z"/><path class="cls-3" d="m48.35,129.57v2.02s.68-.1,1-.32.32-.64.32-.64c0-.34-.22-.65-.54-.77l-.79-.29Z"/><path class="cls-3" d="m54.79,127.3v11.1h5.66v-4.1l.2.07c.6.21,1.01.78,1.01,1.42v2.61h5.86v-2.66c0-1.09-.66-2.07-1.67-2.47h0s.55-.35.55-.35c.7-.44,1.12-1.21,1.12-2.04v-.08c0-.58-.19-1.15-.54-1.62l-.55-.74c-.35-.47-.86-.81-1.44-.94l-.8-.18h-9.4Z"/><path class="cls-3" d="m60.2,129.57v2.42l.89-.23c.38-.1.64-.44.64-.83h0c0-.47-.29-.9-.74-1.06l-.79-.3Z"/><polygon class="cls-3" points="67.51 127.3 67.51 138.4 78.38 138.4 78.38 136.58 72.95 136.58 72.95 134.16 74.9 134.16 74.9 131.99 72.95 131.99 72.95 129.57 78.38 129.57 78.38 127.3 67.51 127.3"/><path class="cls-3" d="m84.57,127.3h-1.65c-1.16.06-2.6.31-3.41,1.1l-.94,1.19-.86,1.32-.05,2.05,1.81,1.44,2.75.95s1.05.2,1.36.44c.28.22.52.74.26.98-.5.46-2.69-.28-2.69-.28l-1.68-.85-.76.05-.57.47.24.43v1.82l2.37.41h3.75l2.8-.81,1.61-2.23.24-2.71-1.99-1.42-3.04-.86s-1.48-.09-1.8-.42c-.14-.14-.13-.64,0-.79.42-.49,2.5,0,2.5,0l1.35.47,1.26,1.08.56-1.4-.45-.64-1.42-.99-1.53-.77Z"/><path class="cls-3" d="m95.79,129.49l1.41.57.7.35,1.21-.67-1.75-1.78-2.14-1.37-3.6.53-1.8.53-1.57,1.27-.43,2.52,2.23,2.61,2.71,1.09,1.42.52s.59.32.62.52c.02.19-.24.57-.43.62-.58.14-2.28-.71-2.28-.71l-1.76-.9-1.19-.75-.43,2.37,2.37,1.58,1.99.41h4.04l2.66-2.28.36-2.87-1.41-1.83-2.66-.85-2.11-.44s-1.27-.57-.84-.89c.4-.29.63-.38.63-.38.36-.22.7-.14,1.11-.07l.91.29Z"/><path class="cls-3" d="m110.56,133.06l-.47,1.67c-.04.14-.06.28-.06.42,0,0-.09.67,0,.86.15.3,1.07.84,1.07.84h1.08l-1.61-3.79Z"/><path class="cls-3" d="m114.42,129.42c.54-.14,1.23.37,1.23.37l.86-.31-.56-1.26-.98-.93h-3.42c-.3,0-.59.09-.84.25l-.37.24c-.65.42-1.04,1.15-1.03,1.93l.02,1.83-1.7.69c-.81.33-1.33,1.11-1.33,1.98v1.1c0,.17.06.34.17.48l1.25,1.59c.5.63,1.26,1.01,2.07,1.01h2.9l.9.96h5.14l-1.14-1.73,1.49-1.24c.61-.51.98-1.24,1.02-2.04l.18-3.78-2.69-.06-2.15.78-.18,2.39-1.14-1.55-.54-1.2s-.2-1.25.81-1.51Z"/><path class="cls-3" d="m132.53,129.19l1.71.78.68.42,1.65-.36-.56-1.14c-.17-.34-.44-.61-.78-.78l-1.35-.67c-.17-.08-.36-.13-.55-.13h-4.18c-.24,0-.47.03-.7.1l-1.63.48-.62.81c-.61.79-.94,1.76-.94,2.76v.54l.83,1.07,2.13,1.43,2.39.47s1.29.12,1.45.47c.13.27.09.78-.19.91-.76.34-3.51-.29-3.51-.29l-1.77-1.08-1.34,1.04,2.03,1.71,2.75.93h3.36c.58,0,1.14-.19,1.6-.55l1.94-1.52.36-1.61-.09-.72c-.14-1.15-.92-2.12-2.01-2.5l-1.65-.57-2.91-.78s-.47-.43-.47-.66c0-.19.39-.53.39-.53.18-.17.42-.24.67-.21l1.28.2Z"/><path class="cls-3" d="m137.31,127.3l.22,8.39c.02.88.43,1.7,1.12,2.24l.12.09c.5.4,1.12.61,1.76.61h4.04c.54,0,1.07-.2,1.48-.56l.81-.72c.37-.33.58-.8.58-1.3v-8.76h-1.92l-.05,7.11c0,.35-.1.7-.28,1l-.06.1c-.29.48-.96.52-1.3.07h0c-.32-.41-.49-.92-.5-1.44l-.09-6.84h-5.92Z"/><path class="cls-3" d="m157.62,130.23l-.44-1.47c-.09-.3-.26-.56-.5-.76l-.32-.27c-.33-.27-.74-.43-1.17-.43h-4.28c-.7,0-1.37.27-1.87.76l-.58.57c-.46.45-.71,1.06-.71,1.7v2.63l2.54,1.22,2,.96.89.51s.43.81.2.92c-.47.22-2.16-.29-2.16-.29l-1.67-.86c-.53-.17-1.02-.47-1.4-.88l-.4-.42-.31,2.72,2.08,1.22,1.97.57h3.47c.71,0,1.4-.25,1.95-.71l1.08-.9.47-1.56v-1.48c0-.85-.48-1.62-1.23-2.01l-1.63-.83-2.96-.52s-.8-.45-.83-.73c-.03-.26.38-.74.62-.83.34-.13,1.12-.11,1.74-.07.54.03,1.04.27,1.39.67l.3.34,1.76.21Z"/><polygon class="cls-3" points="158.45 127.3 158.45 138.64 165 138.64 165 134.64 166.1 134.66 166.1 138.64 171.53 138.64 171.53 127.3 166.15 127.3 166.18 131.51 164.99 131.45 164.99 127.3 158.45 127.3"/><polygon class="cls-3" points="177.6 127.42 171.53 127.3 171.53 138.64 177.6 138.64 177.6 127.42"/></g><path class="cls-4" d="m114.77,34.99l2.21-5.65v-8.25l-2.21-5.43-1.51-4.55v-2.58c0-1.67.86-3.2,2.23-3.97l.91-.51c.86-.48,1.89-.43,2.71.14l2.51,1.74,2.67,5.18,1.39,8.89-.46,5.89-2.79,5.55-4.65,5.68-1.86,1.35-1.16-3.5Z"/><path class="cls-4" d="m124.49,27.37l-1.64-2.37-1.21-.65c-.54-.29-1.14-.42-1.75-.38l-1.34.09-1.57,1"/><path class="cls-4" d="m125.32,17.62l-2.5-3-1.47-.36c-.35-.09-.71-.13-1.08-.13h-1.81l-1.71,1.22-1.37,1.85"/><path class="cls-4" d="m116.98,26.25l-.21-.34-2.61-1.69-.7-.27c-.65-.25-1.33-.33-2.01-.24l-1.51.2-1.76,1.13"/><polyline class="cls-4" points="114.77 34.99 112.72 33.81 110.29 33.32 108.59 33.58 106.12 34.16"/><polyline class="cls-4" points="114.47 47.03 113.59 44.05 110.88 40.6 105.29 39.63 102.63 40.75"/><path class="cls-4" d="m114.77,15.67l-2.05-.73-2.08.36-1.96,2.61-.5,3.35v4.37l-1.04,4.88-1.5,5.36-1.66.99c-.71.43-1.17,1.21-1.23,2.09l-.63,9.68.28-.12,4.63-2,4.23-3.91-.35,7.12,4.81-3.65,5.33-7.94,1.22-2.52.78,5.86c.17,1.3-.09,2.63-.75,3.73l-1.94,3.26-2.02,4.22h2.02l1.84-1.83.79-.88-.34,2.36c-.15,1.04-.59,2-1.26,2.76l-1.91,2.15-2.05,2.51c-.37.45-.84.78-1.36.96l-5.82,1.77,1.02-4.81-1.02,4.81-1.69,1.74-2.61,1.82c-.68.47-1.45.75-2.25.8l-1.82.12c-1,.07-2-.21-2.86-.78l-.86-.58c-1.24-.82-1.99-2.29-1.99-3.86v-3.03l1.21-3.89c.22-.7.58-1.35,1.05-1.89l2.05-2.34,1.66-1.96"/><path class="cls-2" d="m106.29,52.64l.76,1.03c.1.21.41,1.61.35,1.84l-1.12,3.72c-.02.06-.04.11-.07.17l-.96,1.77c-.1.19-1.44,1.69-1.63,1.76l-2,.69c-.33.11-.68-.01-.89-.31l-.87-1.3c-.15-.23.04-1.28.12-1.55l.76-2.46c.02-.06.04-.12.07-.17l1.82-4.06c.1-.18,1.41-1.33,1.6-1.39l1.11-.15c.37-.13.77.05.95.42Z"/><path class="cls-4" d="m110.71,65.13l1.19,1.17c.44.44.74,1.02.85,1.67l.45,2.72c.04.27.04.54-.01.81l-.28,1.44c-.21,1.06-.81,1.97-1.66,2.53l-.88.58c-.47.31-1.04.39-1.57.23l-.8-.24c-.33-.1-.62-.3-.85-.57l-1.41-1.68c-.2-.24-.33-.55-.37-.87l-.39-3.34c-.04-.38,0-.76.12-1.11l.65-1.86c.13-.37.36-.68.67-.9l.86-.6c.81-.56,1.8-.71,2.72-.4l.11.04c.22.08.43.2.61.38Z"/><path class="cls-2" d="m109.09,69.79c.23.07.43.94.43.94.07.14.06.31,0,.45,0,0-.22.76-.42.82-.27.07-.73-.49-.87-.76-.1-.19-.08-.66,0-.86.1-.26.62-.67.87-.59Z"/><path class="cls-4" d="m114.21,61.17l2.14,2.05c.68.65,1.1,1.57,1.16,2.55l.29,4.62-1.52,4.2-4.32,1.42-6.03,1.48c-.28.07-.55.19-.78.37l-1.1.82-1.07-1.63c-.13-.19-2.26-3.5-2.31-3.73l-.38-1.62c-.19-.82,0-1.7.5-2.34l1.86-2.38,1.06-.13,2.25-.8,2.61-1.82,1.69-1.74,1.71-.39,2.8-.95"/><path class="cls-4" d="m122.3,45.2l3.4-1.87,6.82-.66h3.27l2.43-3.64-2.58,2.89-1.51-.19-1.34-2.7v-3.08l1.41-1.5c.49-.52,1.12-.86,1.8-.95l1.29-.18h1c1.32,0,2.58.6,3.47,1.66h0c.67.79,1.09,1.78,1.2,2.85l.34,3.13v3.65l-.7,2.42-2.47,2.68-2.35,1.74-4.03,1.54-5.14,1.22-4.55,3.69-2.91,4.17-1,3.39v-8.96l2.65-1.7,4.38-2.81,3.63-1.61c.4-.18.83-.28,1.27-.29l1.22-.04-1.18-.8q-.7-.12-1.7.24l-3.95,2.26-6.31,4.75,1.73-2.45c.37-.53.62-1.14.73-1.8l.38-2.28-1.97,2.03c-.43.44-.99.68-1.58.68h-1.1l3.24-4.31,5.81-1.31,1.38-.03-.12-.08c-.58-.41-1.29-.57-1.98-.44l-5.02.96-2.8,4.52,3.44-6.8"/><polygon class="cls-4" points="117.8 65.46 120.14 65.46 123.1 67.37 124.8 70.38 124.8 73.75 122.39 74.97 121.82 71.7 120.22 69.79 117.8 69.12 117.8 65.46"/><path class="cls-2" d="m111.96,76h4.5l1.87,1.21,4.05-2.24-.14-2.03c-.06-.9-.37-1.77-.88-2.52l-.11-.16c-.49-.72-1.31-1.15-2.18-1.15h-1.28l-1.52,5.46-4.32,1.42Z"/><polygon class="cls-2" points="129.35 79.36 127.37 77.21 123.67 77.21 118.33 80.44 114.99 84.75 119.89 84.75 124.8 80.98 128.54 79.85 130.23 80.5 129.35 79.36"/><path class="cls-2" d="m117.8,78.67l-5.84,4.47-2.14-.71c-1.07-.36-2.22-.4-3.32-.14l-3.49.85s0,0,0,0l3.54-3.51c.63-.62,1.42-1.05,2.28-1.23l1.04-.22c.95-.2,1.93-.25,2.89-.12l5.04.63Z"/><polyline class="cls-2" points="102.63 40.75 96.73 45.83 98.76 47.45 100.46 50.6 102.4 48.52 102.63 40.75"/><path class="cls-4" d="m147.34,52.54l-1.67,2.47h-3.22l-1.39-1.61c-.77-.89-1.13-2.1-.99-3.3l.04-.38,1.91-2.08c.37-.4.81-.7,1.31-.89l1.05-.4c1.16-.44,2.41-.48,3.59-.11l.15.05c1.51.47,2.76,1.63,3.44,3.17l1.11,2.54-1.48,5.9-3.85,4.93-5.74,2.63h-8.06l-4.31,1.98-4.43,2.95-.89-1.59,2.73-3.33,3.55-1.66,3.55-.97.46-.48-2.36.48-2.94,1.11-3.13,1.99-2.18,2.31-.83-1.09,1.4-2.33,2.86-2.43,3.6-1.58.19-.43-2.27,1.34-1.52.66-1.55,1.32-1.31,1.11-1.77,2.09-2.24-1.45,1-3.39,2.91-4.17,4.55-3.69,5.14-1.22,4.47,1.8.07.96-2.56,1.85-.6.43v1.64l.58-1.35,1.44-1.18,1.41-.94.51-.59,1.23-.12,3.65.04.87-.2.86-.33"/><path class="cls-4" d="m113.79,85.28l.41.7c.5.86.58,1.9.2,2.82l-1.2,2.5-3.57,2.23,1.67,2.39c.49.71,1.15,1.26,1.91,1.6l4.59,2.06,5.31,2.19h3.35l1.51-.47,1.83-.56-3.63-1.03c-.89-.25-1.7-.79-2.32-1.53l-1.72-2.07,1.54-1.67,4.41-.71c.75-.12,1.46-.47,2.04-1.01l1.76-1.63.73-1.67-3.38.39-5.56-.13-1.54-1.93,4.32-2.97,2.78-2.18.57-2.04-1.26-.69-3.74,1.13-4.91,3.77-6.1.53Z"/><polygon class="cls-4" points="130.23 84.56 129.23 85.77 125.4 88.27 123.67 89.66 122.13 87.73 126.27 86.12 128.25 85.25 130.23 84.56"/><path class="cls-4" d="m129.23,89.79l2.98-2.64,2.53-3.01.32-1.55-3.18-4.72-2.08-1.33-2.43.67h-3.7l-5.34,3.23-4.55,4.84-1.83-2.14,5.84-4.47,4.59-3.7,2.41-1.22h3.24l3.28.48c1.24.18,2.38.87,3.17,1.92l1.91,2.52,3.7,4.55,3.76,1.53,4.92-.4c.64-.05,1.27-.23,1.85-.53l4.04-2.06,3.09-3.29c.38-.41.69-.89.91-1.42l.91-2.22c.45-1.09.58-2.3.39-3.47l-.37-2.24-2.23-3.66-4.7-2.17,4.7-.94.94.17c1.6.29,2.97,1.4,3.68,2.98l.89,1.98c.13.29.23.59.29.9l.51,2.54c.3,1.46.19,2.99-.3,4.39l-.89,2.55-2.99,4-4.03,2.89-3.24,2.05c-.87.55-1.83.9-2.82,1.03l-3.54.46c-.37.05-.74.05-1.11,0l-2.42-.32c-1.22-.16-2.37-.66-3.35-1.46l-2.17-1.77-1.76-2.17"/><path class="cls-4" d="m147.34,62.83l1.69.97,2.16,3.18v3.92l-1.08,4.07-3.92,2.89-2.9,1.4-5.01,1.72-1.88-2.31s3.95-1.15,4.53-1.64c.17-.14.42-.64.42-.64l-2.63,1.47-2.79.19-1.42-1.87c-.81-1.07-1.96-1.76-3.22-1.95l-3.25-.48h-3.24v-3.36l3.15-2.09,4.93,4.17-.26-.77c-.78-.93-1.54-1.97-2.08-2.11l-.53-.3-1.47-1.01,3.35-2.06,4.53,3.69,1.88,2.08-1.21,2.97,2.23-1.81,2.29-1.16h3c1.19-.06,2.22-.94,2.55-2.18l.19-.7-1.8,1.89c-.16.17-.33.32-.52.43-.14.08-.29.16-.44.22-.68.28-1.45.15-2.08-.23l-.89-.53-.47-1.27c-.26-.71-.29-1.5-.08-2.23l.56-1.94,3.62-1.66,2.12-.97Z"/><polygon class="cls-1" points="139.68 71.9 138.28 72 137.08 74.97 139.31 73.16 141.6 72 139.68 71.9"/></g></svg>